<svg width="200" height="200" viewBox="0 0 200 200" fill="none" xmlns="http://www.w3.org/2000/svg">
<path d="M25.9331 117.333C25.9331 110.733 27.9998 104.8 32.1331 99.6667C36.2664 94.5334 41.5331 91.2 47.9998 89.7334C49.7331 81.9334 53.6664 75.4667 59.8664 70.5334C66.0664 65.5334 73.1998 63.0667 81.3331 63.0667C89.1998 63.0667 96.2664 65.4667 102.4 70.3334C108.6 75.2 112.6 81.4 114.4 89H116.2C124.066 89 130.733 91.7334 136.266 97.2667C141.8 102.8 144.6 109.467 144.6 117.267C144.6 125.133 141.8 131.8 136.266 137.333C130.733 142.867 124.066 145.667 116.2 145.667H54.3998C50.5331 145.667 46.8664 144.933 43.3998 143.4C39.9331 141.867 36.7998 140 34.2664 137.467C31.7331 134.933 29.7331 131.867 28.1998 128.4C26.6664 124.933 25.9331 121.133 25.9331 117.333ZM35.5998 117.333C35.5998 122.4 37.4664 126.8 41.0664 130.4C44.6664 134 49.1331 135.867 54.3331 135.867H116.2C121.333 135.867 125.8 134.067 129.466 130.4C133.133 126.733 135 122.4 135 117.333C135 112.267 133.2 107.867 129.466 104.267C125.8 100.667 121.4 98.8 116.2 98.8H106.933C106.266 98.8 105.933 98.4667 105.933 97.8L105.466 94.5334C104.8 88.2667 102.133 83 97.5331 78.8667C92.9331 74.7334 87.4664 72.6667 81.1998 72.6667C74.9331 72.6667 69.4664 74.7334 64.7998 78.9334C60.1331 83.0667 57.5331 88.3334 56.9331 94.5334L56.4664 97.3334C56.4664 98 56.1331 98.3334 55.3998 98.3334L52.3998 98.8C47.5998 99.2 43.5998 101.2 40.3331 104.733C37.2664 108.267 35.5998 112.467 35.5998 117.333ZM94.5998 59.2C93.9331 59.8 94.0664 60.2667 95.0664 60.6C97.9331 61.8667 100.333 63.0667 102.266 64.2667C103 64.4667 103.533 64.4 103.733 64.0667C107.8 60.2667 112.466 58.3334 117.866 58.3334C123.266 58.3334 127.866 60.1334 131.866 63.7334C135.8 67.3334 138 71.8 138.466 77.0667L139.066 81.3334H148.533C152.866 81.3334 156.6 82.8667 159.733 86C162.866 89.1334 164.4 92.8 164.4 97.0667C164.4 101.067 163 104.533 160.266 107.533C157.533 110.533 154.133 112.2 150.066 112.667C149.4 112.667 149.066 113 149.066 113.733V121.267C149.066 122 149.4 122.333 150.066 122.333C156.8 121.933 162.466 119.267 167.066 114.4C171.666 109.533 174 103.733 174 97.0667C174 90 171.533 84 166.533 79.0667C161.533 74.0667 155.533 71.6 148.533 71.6H147.533C145.8 64.9334 142.133 59.4667 136.533 55.1334C131 50.8 124.733 48.6667 117.866 48.6667C108.533 48.6 100.733 52.1334 94.5998 59.2Z" fill="#BD4747"/>
</svg>
