<svg width="200" height="200" viewBox="0 0 200 200" fill="none" xmlns="http://www.w3.org/2000/svg">
<path d="M30.7334 112.533C30.7334 104.867 33.1334 98.0667 37.9334 92.0667C42.7334 86.0667 48.8001 82.2 56.2001 80.5333C58.2667 71.4 63.0001 63.9333 70.2667 58.0667C77.5334 52.2 85.9334 49.2667 95.3334 49.2667C104.533 49.2667 112.733 52.1333 119.933 57.8C127.133 63.4667 131.8 70.8 133.933 79.7333H136.133C142.133 79.7333 147.667 81.2 152.733 84.0667C157.8 86.9333 161.867 90.9333 164.8 96C167.733 101.067 169.267 106.533 169.267 112.533C169.267 118.4 167.867 123.867 165.067 128.867C162.267 133.867 158.4 137.867 153.533 140.867C148.667 143.867 143.267 145.467 137.467 145.667H62.7334C53.8001 145.267 46.2667 141.867 40.0667 135.467C33.8667 129.133 30.7334 121.467 30.7334 112.533ZM42.1334 112.533C42.1334 118.333 44.1334 123.333 48.1334 127.6C52.1334 131.867 57.0001 134.133 62.7334 134.467H137.333C143.067 134.2 147.933 131.867 151.933 127.6C156 123.333 158 118.267 158 112.533C158 106.667 155.8 101.667 151.467 97.4C147.133 93.1333 142 91 136 91H125.333C124.6 91 124.2 90.6 124.2 89.8L123.733 86C123 78.8 119.867 72.7333 114.4 67.8667C108.933 63 102.6 60.5333 95.3334 60.5333C88.0667 60.5333 81.6667 63 76.3334 67.8667C70.9334 72.7333 67.8667 78.8 67.2001 86L66.6667 89.8C66.6667 90.6 66.2001 91 65.3334 91H61.8001C56.2001 91.6667 51.5334 94.0667 47.8001 98.1333C44.0667 102.2 42.1334 107 42.1334 112.533Z" fill="#BD4747"/>
</svg>
