<svg width="200" height="200" viewBox="0 0 200 200" fill="none" xmlns="http://www.w3.org/2000/svg">
<path d="M29.1333 97.4667C29.1333 95.8667 29.6666 94.4667 30.8 93.3334C31.9333 92.2667 33.3333 91.7334 34.8 91.7334H48.4C49.9333 91.7334 51.2 92.2667 52.2666 93.4C53.2666 94.5334 53.8 95.8667 53.8 97.4667C53.8 99.0667 53.3333 100.4 52.3333 101.533C51.3333 102.667 50 103.2 48.4666 103.2H34.8666C33.3333 103.2 32 102.667 30.8666 101.533C29.7333 100.4 29.1333 99.0667 29.1333 97.4667ZM48.2 143.667C48.2 142.133 48.7333 140.8 49.7333 139.6L59.5333 130.067C60.5333 129 61.8666 128.533 63.4666 128.533C65.0666 128.533 66.4 129.067 67.4666 130.067C68.5333 131.067 69.0666 132.333 69.0666 133.867C69.0666 135.467 68.5333 136.933 67.4666 138.133L58 147.6C55.2666 149.733 52.5333 149.733 49.8 147.6C48.7333 146.533 48.2 145.2 48.2 143.667ZM48.2 51.4C48.2 49.8667 48.7333 48.5334 49.7333 47.3334C51.0666 46.2 52.4666 45.6667 54 45.6667C55.4666 45.6667 56.8 46.2 57.9333 47.2667L67.4666 57.0667C68.5333 58.0667 69.0666 59.4 69.0666 61C69.0666 62.6 68.5333 63.9334 67.4666 65C66.4 66.0667 65.0666 66.6 63.4666 66.6C61.8666 66.6 60.5333 66.0667 59.5333 65L49.8 55.4667C48.7333 54.4 48.2 53 48.2 51.4ZM65.2 97.4667C65.2 91.2667 66.7333 85.4667 69.8666 80.1334C73 74.8 77.2 70.5334 82.6 67.4C88 64.2667 93.7333 62.7334 99.9333 62.7334C104.6 62.7334 109.067 63.6667 113.4 65.5334C117.667 67.4 121.4 69.8667 124.467 73C127.6 76.1334 130.067 79.8 131.867 84.0667C133.667 88.3334 134.6 92.8667 134.6 97.5334C134.6 103.8 133.067 109.6 129.933 114.933C126.8 120.267 122.6 124.467 117.267 127.6C111.933 130.733 106.133 132.267 99.8666 132.267C93.6 132.267 87.8 130.733 82.4666 127.6C77.1333 124.467 72.9333 120.267 69.8 114.933C66.8 109.533 65.2 103.733 65.2 97.4667ZM76.5333 97.4667C76.5333 104 78.8 109.533 83.4 114.133C87.9333 118.733 93.4666 121.067 100 121.067C106.533 121.067 112.067 118.733 116.667 114.133C121.267 109.533 123.6 104 123.6 97.4667C123.6 91.0667 121.267 85.6 116.667 81C112.067 76.4667 106.533 74.2 100 74.2C93.5333 74.2 88 76.4667 83.4666 81C78.8 85.6 76.5333 91.0667 76.5333 97.4667ZM94.2666 149.333C94.2666 147.733 94.8 146.4 95.9333 145.333C97.0666 144.267 98.4 143.733 99.9333 143.733C101.533 143.733 102.933 144.267 104 145.333C105.067 146.4 105.6 147.733 105.6 149.333V162.6C105.6 164.2 105.067 165.6 103.933 166.733C102.8 167.867 101.467 168.4 99.9333 168.4C98.4 168.4 97 167.867 95.9333 166.733C94.8 165.6 94.2666 164.2 94.2666 162.6V149.333ZM94.2666 46V32.4C94.2666 30.8667 94.8 29.5334 95.9333 28.4C97.0666 27.2667 98.4 26.6667 100 26.6667C101.6 26.6667 102.867 27.2 104 28.3334C105.133 29.4667 105.667 30.8 105.667 32.3334V46C105.667 47.5334 105.133 48.8 104 49.8667C102.867 50.9334 101.533 51.4 100 51.4C98.4666 51.4 97.0666 50.8667 96 49.8667C94.9333 48.8667 94.2666 47.5334 94.2666 46ZM131.067 133.867C131.067 132.333 131.6 131.067 132.6 130.133C133.6 129.067 134.867 128.6 136.333 128.6C137.933 128.6 139.267 129.133 140.333 130.133L150.067 139.667C151.133 140.8 151.667 142.2 151.667 143.733C151.667 145.267 151.133 146.6 150.067 147.667C147.4 149.733 144.733 149.733 142.067 147.667L132.6 138.2C131.6 137 131.067 135.6 131.067 133.867ZM131.067 61.0667C131.067 59.4 131.6 58.0667 132.6 57.1334L142.067 47.3334C143.2 46.2667 144.533 45.7334 146 45.7334C147.6 45.7334 148.933 46.2667 150 47.4C151.133 48.5334 151.667 49.8667 151.667 51.4C151.667 53.0667 151.133 54.4667 150.067 55.5334L140.333 65.0667C139.133 66.1334 137.8 66.6667 136.333 66.6667C134.8 66.6667 133.6 66.1334 132.6 65.0667C131.6 64 131.067 62.6667 131.067 61.0667ZM146.133 97.4667C146.133 95.8667 146.667 94.5334 147.733 93.3334C148.8 92.2667 150.067 91.7334 151.533 91.7334H165C166.533 91.7334 167.867 92.3334 169 93.4667C170.133 94.6 170.733 95.9334 170.733 97.4667C170.733 99 170.133 100.333 169 101.467C167.867 102.6 166.533 103.133 165 103.133H151.533C150 103.133 148.667 102.6 147.667 101.467C146.667 100.333 146.133 99.0667 146.133 97.4667Z" fill="#BD4747"/>
</svg>
