<svg width="200" height="200" viewBox="0 0 200 200" fill="none" xmlns="http://www.w3.org/2000/svg">
<path d="M48.8667 110.533C48.8667 109 49.4 107.8 50.4 106.8C51.4667 105.8 52.8667 105.333 54.6667 105.333H92.7334C94.5334 105.333 95.9334 105.8 97 106.8C98.0667 107.8 98.5334 109 98.5334 110.533C98.5334 112.333 98 113.8 97 114.8C96 115.8 94.5334 116.333 92.7334 116.333H54.6667C52.8667 116.333 51.4667 115.8 50.4 114.8C49.3334 113.8 48.8667 112.4 48.8667 110.533ZM48.8667 71.1333C48.8667 69.6667 49.4 68.4 50.4 67.4667C51.4667 66.4667 52.8667 66 54.6667 66H74.4C76.2 66 77.6 66.4667 78.6667 67.4667C79.7334 68.4 80.2667 69.6667 80.2667 71.1333C80.2667 72.9333 79.7334 74.3333 78.6667 75.4C77.6 76.4667 76.2 77 74.4 77H54.6667C52.8667 77 51.4667 76.4667 50.4 75.4667C49.3334 74.4667 48.8667 72.9333 48.8667 71.1333ZM55.4667 130.267C55.4667 128.8 56.0667 127.467 57.3334 126.267C58.5334 125.067 59.9334 124.4 61.3334 124.4C63.0667 124.4 64.4 125 65.4667 126.2C66.5334 127.4 67.0667 128.733 67.0667 130.267C67.0667 132.067 66.5334 133.533 65.5334 134.6C64.5334 135.667 63.1334 136.133 61.3334 136.133C59.8 136.133 58.4 135.6 57.2667 134.533C56 133.4 55.4667 132 55.4667 130.267ZM64.9334 90.7333C64.9334 89.2 65.4 87.8 66.4 86.6667C67.4 85.4667 68.6 84.8667 70 84.8667C71.7334 84.8667 73.2 85.4667 74.2667 86.6667C75.3334 87.8667 75.8667 89.2 75.8667 90.7333C75.8667 92.5333 75.3334 94 74.3334 95.0667C73.2667 96.1333 71.8667 96.6 70 96.6C68.4667 96.6 67.2667 96.0667 66.3334 95C65.4 93.9333 64.9334 92.5333 64.9334 90.7333ZM71.5334 130.267C71.5334 128.733 72.0667 127.333 73.1334 126.2C74.2 125.067 75.6667 124.4 77.4 124.4H102.933L108.8 130.267C108.8 132 108.2 133.4 107 134.533C105.8 135.667 104.467 136.133 102.933 136.133H77.4C75.6 136.133 74.1334 135.6 73.0667 134.533C72 133.467 71.5334 132.067 71.5334 130.267ZM80.3334 90.7333C80.3334 89.2667 80.9334 87.9333 82.2 86.7333C83.4 85.5333 84.8 84.8667 86.2 84.8667H111.733C113.467 84.8667 114.867 85.4667 115.933 86.6667C117 87.8667 117.533 89.2 117.533 90.7333C117.533 92.5333 117 94 116 95.0667C114.933 96.1333 113.533 96.6 111.733 96.6H86.2C84.6667 96.6 83.2667 96.0667 82.1334 95C80.9334 93.9333 80.3334 92.5333 80.3334 90.7333ZM85.4 71.1333C85.4 69.6667 85.9334 68.4 87 67.4667C88.0667 66.5333 89.4667 66 91.2667 66H129.333C130.867 66 132.2 66.5333 133.4 67.5333C134.6 68.5333 135.2 69.7333 135.2 71.1333C135.2 72.8667 134.6 74.3333 133.4 75.4C132.2 76.4667 130.867 77 129.333 77H91.2667C89.4667 77 88 76.4667 86.9334 75.4C85.8667 74.3333 85.4 72.9333 85.4 71.1333ZM102.933 110.533C102.933 109.133 103.533 107.867 104.733 106.867C105.933 105.867 107.267 105.333 108.8 105.333C110.333 105.333 111.667 105.867 112.867 106.867C114.067 107.867 114.667 109.133 114.667 110.533C114.667 112.267 114.067 113.667 112.867 114.733C111.667 115.8 110.333 116.333 108.8 116.333C107.267 116.333 105.867 115.8 104.733 114.733C103.533 113.733 102.933 112.333 102.933 110.533ZM113.2 130.267C113.2 128.733 113.733 127.333 114.8 126.2C115.867 125 117.267 124.4 119 124.4H131.467C133.2 124.4 134.6 125 135.667 126.133C136.733 127.267 137.267 128.667 137.267 130.267C137.267 132.067 136.733 133.533 135.733 134.6C134.733 135.667 133.267 136.133 131.467 136.133H119C117.2 136.133 115.8 135.6 114.733 134.6C113.733 133.533 113.2 132.067 113.2 130.267ZM119 110.533C119 109.133 119.6 107.867 120.8 106.867C122 105.867 123.333 105.333 124.867 105.333H145.333C146.8 105.333 148 105.867 148.933 106.867C149.867 107.867 150.4 109.067 150.4 110.533C150.4 112.333 149.933 113.733 149 114.8C148.067 115.867 146.867 116.333 145.333 116.333H124.867C123.333 116.333 121.933 115.8 120.8 114.733C119.6 113.733 119 112.333 119 110.533ZM121.933 90.7333C121.933 89.2667 122.533 87.9333 123.8 86.7333C125 85.5333 126.4 84.8667 127.8 84.8667H140.867C142.267 84.8667 143.467 85.4667 144.467 86.6667C145.467 87.8667 146 89.2 146 90.7333C146 92.5333 145.533 93.9333 144.533 95C143.6 96.0667 142.333 96.6 140.867 96.6H127.8C126.267 96.6 124.867 96.0667 123.733 95C122.533 93.9333 121.933 92.5333 121.933 90.7333ZM140.2 71.1333C140.2 69.6667 140.667 68.4667 141.667 67.4667C142.667 66.4667 143.867 66 145.333 66C147.133 66 148.533 66.4667 149.6 67.4667C150.667 68.4 151.2 69.6667 151.2 71.1333C151.2 72.9333 150.667 74.3333 149.6 75.4C148.533 76.4667 147.133 77 145.333 77C143.8 77 142.6 76.4667 141.667 75.4C140.667 74.3333 140.2 72.9333 140.2 71.1333Z" fill="#BD4747"/>
</svg>
