<svg width="200" height="200" viewBox="0 0 200 200" fill="none" xmlns="http://www.w3.org/2000/svg">
<path d="M17.4668 140.333C17.4668 138.733 18.0001 137.333 19.1335 136.267C20.2668 135.2 21.6668 134.667 23.3335 134.667H147.8C149.467 134.667 150.8 135.2 151.867 136.267C152.933 137.333 153.467 138.667 153.467 140.333C153.467 141.867 152.933 143.2 151.8 144.2C150.667 145.267 149.333 145.733 147.8 145.733H23.3335C21.6668 145.733 20.2668 145.2 19.1335 144.2C18.0001 143.133 17.4668 141.867 17.4668 140.333ZM34.9335 119.4C34.9335 117.8 35.5335 116.467 36.6668 115.4C37.6668 114.4 39.0001 113.867 40.6001 113.867H165.067C166.6 113.867 167.867 114.4 168.933 115.467C170 116.533 170.467 117.8 170.467 119.4C170.467 121 169.933 122.333 168.933 123.4C167.867 124.533 166.6 125.067 165.067 125.067H40.6001C39.0001 125.067 37.6668 124.533 36.6001 123.4C35.4668 122.267 34.9335 120.933 34.9335 119.4ZM35.8001 103.467C35.8001 104.067 36.1335 104.333 36.8001 104.333H46.3335C46.7335 104.333 47.2001 104 47.6668 103.267C49.2668 99.8 51.6001 97 54.7335 94.8C57.8668 92.6 61.3335 91.3333 65.0668 91.0667L68.7335 90.6C69.4668 90.6 69.8668 90.2 69.8668 89.4L70.3335 86.0667C71.0668 78.8667 74.0668 72.8667 79.4668 68.0667C84.8668 63.2667 91.2001 60.8667 98.4668 60.8667C105.667 60.8667 111.933 63.2667 117.333 68C122.667 72.7333 125.733 78.7333 126.467 85.8667L127 89.6667C127 90.4 127.467 90.8 128.333 90.8H138.933C143.2 90.8 147.133 91.9333 150.667 94.2667C154.2 96.6 156.8 99.6 158.533 103.4C159 104.133 159.467 104.467 159.933 104.467H169.467C170.267 104.467 170.6 104 170.4 102.933C168.467 96.1333 164.533 90.5333 158.8 86.2C153 81.8667 146.4 79.7333 139 79.7333H136.867C134.667 70.8667 130 63.6 122.867 57.9333C115.733 52.2667 107.667 49.4667 98.5335 49.4667C89.2001 49.4667 80.9335 52.4 73.6668 58.2667C66.4001 64.1333 61.8001 71.6 59.7335 80.6667C54.0668 82 49.0668 84.6667 44.8001 88.7333C40.5335 92.8 37.5335 97.6 35.8668 103.267V103C35.8001 103 35.8001 103.2 35.8001 103.467ZM46.5335 160.733C46.5335 159.133 47.1335 157.867 48.2668 156.8C49.2668 155.8 50.6001 155.267 52.2668 155.267H176.8C178.4 155.267 179.733 155.8 180.8 156.8C181.933 157.867 182.467 159.133 182.467 160.667C182.467 162.267 181.933 163.6 180.8 164.733C179.667 165.867 178.333 166.4 176.8 166.4H52.2668C50.7335 166.4 49.4001 165.8 48.2668 164.667C47.1335 163.667 46.5335 162.267 46.5335 160.733Z" fill="#8F4E00"/>
</svg>
