<svg width="200" height="200" viewBox="0 0 200 200" fill="none" xmlns="http://www.w3.org/2000/svg">
<path d="M52.7334 96.5333C52.7334 90.1333 54.0001 84.0667 56.4667 78.2C58.9334 72.3333 62.3334 67.3333 66.5334 63.1333C70.7334 58.9333 75.8001 55.5333 81.6667 53C87.5334 50.4667 93.6667 49.2 100 49.2H107.6C108.667 49.4667 109.133 50.1333 109.133 51.0667L109.467 56.9333C109.733 65.4 112.733 72.6 118.6 78.5333C124.467 84.4667 131.533 87.6667 139.867 88L145.333 88.4667C146.4 88.4667 146.933 89 146.933 90V96.5333C147 105.067 144.933 113 140.733 120.267C136.533 127.533 130.867 133.267 123.6 137.533C116.4 141.733 108.467 143.867 99.9334 143.867C93.4667 143.867 87.2667 142.6 81.4001 140.133C75.5334 137.667 70.5334 134.267 66.3334 130.067C62.1334 125.867 58.8001 120.8 56.3334 115C54.0001 109.133 52.7334 103 52.7334 96.5333ZM64.9334 96.5333C64.9334 101.6 65.9334 106.4 67.9334 110.933C69.9334 115.4 72.6001 119.2 75.8667 122.267C79.1334 125.333 82.8667 127.733 87.1334 129.467C91.3334 131.267 95.6667 132.133 100.067 132.133C103.933 132.133 107.867 131.4 111.8 129.867C115.733 128.333 119.4 126.2 122.8 123.467C126.2 120.733 129.067 117.267 131.533 113C134 108.733 135.533 104.133 136.267 99.0667C125.4 96.8 116.667 92.1333 110.133 85.0667C103.6 78 99.8001 69.7333 98.8001 60.1333C92.4001 60.5333 86.6667 62.4667 81.4001 66C76.2001 69.5333 72.1334 74 69.2667 79.4667C66.4001 84.9333 64.9334 90.6 64.9334 96.5333Z" fill="#BD4747"/>
</svg>
