<svg width="200" height="200" viewBox="0 0 200 200" fill="none" xmlns="http://www.w3.org/2000/svg">
<path d="M17.7334 139.467C17.7334 141 18.2667 142.267 19.4001 143.267C20.5334 144.333 21.9334 144.8 23.5334 144.8H147.6C149.2 144.8 150.533 144.267 151.6 143.267C152.733 142.2 153.267 140.933 153.267 139.467C153.267 137.867 152.733 136.467 151.667 135.4C150.6 134.267 149.2 133.733 147.6 133.733H23.5334C21.9334 133.733 20.6001 134.267 19.4667 135.4C18.3334 136.533 17.7334 137.933 17.7334 139.467ZM35.1334 118.733C35.1334 120.333 35.7334 121.6 36.8667 122.667C37.8001 123.867 39.0667 124.467 40.8001 124.467H164.867C166.4 124.467 167.667 123.933 168.733 122.8C169.8 121.667 170.267 120.333 170.267 118.733C170.267 117.2 169.733 115.867 168.733 114.867C167.733 113.867 166.4 113.333 164.867 113.333H40.8001C39.2001 113.333 37.8667 113.867 36.8001 114.867C35.6667 115.933 35.1334 117.2 35.1334 118.733ZM36.1334 102.6V102.267C35.8667 103.267 36.1334 103.733 36.9334 103.733H46.5334C46.9334 103.733 47.3334 103.4 47.8001 102.733C49.4001 99.2667 51.7334 96.4667 54.8667 94.2667C58.0001 92.0667 61.4667 90.8 65.2001 90.5334L68.7334 90C69.5334 90 70.0001 89.6 70.0001 88.8L70.4001 85.4667C71.1334 78.2667 74.1334 72.3334 79.4667 67.4667C84.8001 62.6667 91.1334 60.2667 98.4001 60.2667C105.533 60.2667 111.867 62.6667 117.2 67.4C122.533 72.1334 125.667 78.0667 126.4 85.2L126.867 89C126.867 89.8 127.333 90.2 128.267 90.2H138.8C143.067 90.2 147 91.3334 150.467 93.6667C153.933 95.9334 156.6 99 158.267 102.733C158.733 103.4 159.2 103.733 159.733 103.733H169.2C170 103.733 170.333 103.267 170.2 102.267C168.733 98.5334 167.733 96.2 167.133 95.2C171.933 90.8667 175.333 85.1334 177.133 78.0667L178.267 73.6667C178.467 73.2667 178.4 72.8667 178.2 72.6C178 72.3334 177.733 72.1334 177.4 72.1334L173.267 70.6667C167.333 68.9334 162.8 65.4667 159.667 60.1334C156.533 54.8 155.733 49.1334 157.2 43.0667L158.067 39.2C158.4 38.6 158.133 38.0667 157.2 37.6667L151.6 36.1334C144.333 34.3334 137.133 34.9334 130.133 37.8667C123.133 40.8 117.667 45.5334 113.667 52C108.4 49.9334 103.267 48.9334 98.4001 48.9334C89.1334 48.9334 80.9334 51.8667 73.6667 57.6667C66.4001 63.4667 61.8001 70.9334 59.6667 80C54.0667 81.3334 49.1334 84 44.8667 88.0667C40.6001 92.1334 37.8001 97 36.1334 102.6ZM46.6667 159.8C46.6667 161.4 47.2667 162.667 48.4001 163.733C49.5334 164.933 50.8667 165.533 52.3334 165.533H176.667C178.2 165.533 179.533 165 180.6 163.867C181.667 162.733 182.2 161.4 182.2 159.8C182.2 158.267 181.667 157 180.6 155.933C179.533 154.867 178.2 154.4 176.667 154.4H52.4001C50.8001 154.4 49.4667 154.933 48.4001 155.933C47.2667 157 46.6667 158.267 46.6667 159.8ZM123.4 58C125.733 54.2 128.867 51.2 132.8 49.1334C136.733 47.0667 140.867 46.2 145.267 46.6C144.8 53.5334 146.4 60.0667 149.933 66.1334C153.533 72.2 158.467 76.6667 164.733 79.6C163.733 81.9334 162.067 84.3334 159.733 86.7334C153.6 81.6667 146.6 79.2 138.8 79.2H136.667C134.533 70.4667 130.133 63.4 123.4 58Z" fill="#BD4747"/>
</svg>
