<svg width="200" height="200" viewBox="0 0 200 200" fill="none" xmlns="http://www.w3.org/2000/svg">
<path d="M30.9333 112.733C30.9333 105.067 33.3333 98.2666 38.1333 92.2666C42.9333 86.2666 49 82.4666 56.3334 80.7333C58.4 71.6666 63.1334 64.2 70.4 58.3333C77.6667 52.4666 86 49.6 95.4 49.6C104.6 49.6 112.733 52.4666 119.933 58.1333C127.133 63.8 131.8 71.1333 133.933 80.0666H136.067C142 80.0666 147.533 81.5333 152.6 84.4C157.667 87.2666 161.733 91.2666 164.667 96.2666C167.6 101.267 169.133 106.8 169.133 112.733C169.133 118.6 167.733 124 164.933 129C162.133 134 158.267 138 153.4 141C148.533 144 143.2 145.6 137.4 145.733C136.533 145.733 136.067 145.333 136.067 144.6V135.733C136.067 134.933 136.533 134.533 137.4 134.533C143.067 134.267 147.933 132 151.933 127.733C155.933 123.467 157.933 118.467 157.933 112.667C157.933 106.867 155.733 101.867 151.4 97.6C147.067 93.3333 141.933 91.2 136 91.2H125.267C124.467 91.2 124.067 90.8 124.067 90.0666L123.533 86.2C122.8 79 119.667 72.9333 114.267 68.1333C108.8 63.2666 102.533 60.8666 95.2667 60.8666C88 60.8666 81.6 63.2666 76.2667 68.1333C70.8667 73 67.8667 79 67.2 86.2L66.7334 89.7333C66.7334 90.5333 66.2667 91 65.4 91L61.8667 91.2C56.3333 91.8666 51.6667 94.2666 47.8667 98.3333C44.0667 102.4 42.2 107.2 42.2 112.733C42.2 118.533 44.2 123.533 48.2 127.8C52.2 132.067 57.0667 134.333 62.7334 134.6C63.4667 134.6 63.8667 135 63.8667 135.8V144.667C63.8667 145.4 63.4667 145.8 62.7334 145.8C53.8 145.4 46.2667 142 40.0667 135.6C33.8667 129.2 30.9333 121.6 30.9333 112.733ZM66.6 157.333C66.6 157.067 66.6667 156.6 66.8667 156L77.7334 117.533C78.1334 116.267 78.8667 115.267 79.8667 114.6C80.8667 113.933 81.9333 113.6 82.9333 113.6C83.4 113.6 83.9334 113.667 84.5334 113.8C86.1334 114.067 87.3334 114.933 88.1334 116.267C88.9334 117.6 89.1334 119.067 88.6667 120.733L77.8 158.933C77 161.8 75.1334 163.2 72.3334 163.2C72.0667 163.2 71.8667 163.133 71.6 163.067C71.2 162.933 71 162.867 70.9334 162.867C69.4667 162.467 68.4 161.733 67.6667 160.667C66.9333 159.533 66.6 158.467 66.6 157.333ZM84.0667 176.067L100.333 117.6C100.6 116.333 101.267 115.333 102.333 114.667C103.4 114 104.467 113.667 105.6 113.667C106.2 113.667 106.8 113.733 107.4 113.867C108.867 114.267 109.933 115.133 110.667 116.467C111.4 117.8 111.533 119.2 111.133 120.733L94.9334 179.267C94.6667 180.4 94.0667 181.333 93 182.133C91.9333 182.933 90.8667 183.333 89.6 183.333C89 183.333 88.4 183.2 87.9333 183C86.6 182.667 85.4667 181.8 84.4667 180.4C83.7334 179.2 83.6 177.8 84.0667 176.067ZM111.6 157.467C111.6 157.2 111.667 156.733 111.867 155.933L122.733 117.467C123.133 116.2 123.8 115.2 124.733 114.533C125.733 113.867 126.733 113.533 127.8 113.533C128.333 113.533 128.933 113.6 129.533 113.733C130.933 114.133 131.933 114.8 132.6 115.8C133.267 116.8 133.6 117.867 133.6 118.933C133.6 119.133 133.533 119.467 133.467 119.867C133.4 120.267 133.333 120.533 133.333 120.667L122.467 158.867C122.2 160.133 121.6 161.2 120.6 161.933C119.6 162.667 118.467 163.067 117.2 163.067L115.6 162.733C114.267 162.333 113.267 161.667 112.533 160.6C111.933 159.6 111.6 158.533 111.6 157.467Z" fill="#BD4747"/>
</svg>
