<svg width="200" height="200" viewBox="0 0 200 200" fill="none" xmlns="http://www.w3.org/2000/svg">
<path d="M30.6667 112.867C30.6667 105.133 33.0667 98.3333 37.9334 92.3333C42.7334 86.3333 48.9334 82.4666 56.4667 80.8C58.4001 71.6 63.0001 64.1333 70.2667 58.2C77.5334 52.2666 85.8668 49.3333 95.3334 49.3333C104.6 49.3333 112.867 52.2 120.133 57.8666C127.333 63.5333 132.067 70.8666 134.267 79.8666H136.533C142.533 79.8666 148.067 81.3333 153.067 84.2667C158.133 87.2 162.067 91.2 165 96.2666C167.867 101.333 169.333 106.867 169.333 112.867C169.333 121.8 166.267 129.4 160.2 135.8C154.067 142.2 146.6 145.533 137.733 145.8C136.933 145.8 136.533 145.4 136.533 144.667V135.733C136.533 135 136.933 134.6 137.733 134.6C143.333 134.133 148.2 131.8 152.2 127.6C156.2 123.4 158.2 118.467 158.2 112.8C158.2 106.867 156.067 101.733 151.8 97.4C147.533 93.1333 142.467 90.9333 136.533 90.9333H125.667C124.867 90.9333 124.4 90.5333 124.2 89.7333L123.733 85.9333C123.267 81.2 121.733 76.8666 119.067 73C116.4 69.1333 113 66.1333 108.867 63.9333C104.733 61.7333 100.2 60.6666 95.4001 60.6666C88.0668 60.6666 81.7334 63.0666 76.3334 67.9333C70.9334 72.8 67.8667 78.8666 67.2001 86.0666L66.7334 89.6666C66.7334 90.2666 66.4001 90.6 65.6668 90.6L62.0668 91.3333C56.4668 91.8 51.7334 94.0666 48.0001 98.2C44.2001 102.333 42.3334 107.2 42.3334 112.867C42.3334 118.667 44.3334 123.667 48.2667 127.867C52.2001 132.067 57.0001 134.333 62.7334 134.667C63.5334 134.667 63.9334 135.067 63.9334 135.8V144.733C63.9334 145.467 63.5334 145.867 62.7334 145.867C58.3334 145.667 54.2001 144.667 50.2001 142.867C46.2001 141.067 42.8001 138.667 40.0001 135.733C37.1334 132.8 34.8667 129.4 33.2001 125.4C31.5334 121.4 30.6667 117.267 30.6667 112.867ZM66.8001 158C66.8001 157.8 66.8667 157.467 66.9334 157.133C67.0001 156.8 67.0667 156.533 67.0667 156.4L68.8667 149.533C69.3334 148.067 70.2001 146.867 71.5334 146.133C72.8667 145.333 74.2667 145.2 75.8001 145.667C77.3334 146.133 78.4668 147 79.2668 148.333C80.0667 149.667 80.2001 151.067 79.7334 152.6L78.1334 159.333C77.2668 162.267 75.6001 163.733 73.0667 163.733C72.8667 163.733 72.7334 163.733 72.4667 163.733C72.2667 163.733 72.0001 163.667 71.7334 163.667C71.4668 163.6 71.2667 163.6 71.0667 163.6C69.6667 163.2 68.6001 162.4 67.8667 161.333C67.1334 160.267 66.8001 159.067 66.8001 158ZM75.6001 125.867C75.6001 125.733 75.6001 125.467 75.6668 125.133C75.7334 124.8 75.7334 124.6 75.7334 124.533L77.7334 117.533C78.1334 116.267 78.8667 115.267 79.8667 114.533C80.8667 113.867 81.9334 113.533 83.0001 113.533C83.1334 113.533 83.3334 113.533 83.5334 113.533C83.7334 113.533 83.9334 113.6 84.1334 113.6C84.3334 113.667 84.5334 113.667 84.6667 113.667C86.2001 114.133 87.3334 115 88.0667 116.333C88.8667 117.667 89.0001 119.067 88.5334 120.6L86.9334 127.267C86.4668 129.133 85.6001 130.4 84.2668 131.2C82.9334 132 81.4667 132 79.9334 131.333C78.4667 130.933 77.4001 130.2 76.6667 129.067C75.9334 127.933 75.6001 126.933 75.6001 125.867ZM83.8001 178.867C83.8001 178.667 83.8667 178.4 83.9334 178C84.0001 177.6 84.0667 177.4 84.0667 177.2L86.0001 170.6C86.4001 169 87.3334 167.8 88.6668 167C90.0001 166.2 91.4667 166 93.0001 166.467C94.5334 166.933 95.6001 167.8 96.4001 169.2C97.2001 170.6 97.2667 172 96.8667 173.533L95.2001 180.467C94.4667 183.2 92.7334 184.533 89.8667 184.533C89.5334 184.533 89.0001 184.467 88.2667 184.267C86.8001 184 85.7334 183.333 85.0001 182.267C84.2001 181.2 83.8001 180.067 83.8001 178.867ZM92.7334 147.067C92.7334 146.667 92.8001 146.133 93.0001 145.4L94.8001 138.533C95.2668 137 96.1334 135.867 97.5334 135.133C98.8668 134.333 100.333 134.2 101.867 134.667C103.4 135.067 104.467 135.933 105.267 137.267C106 138.6 106.133 140 105.667 141.6L104.067 148.2C103.2 151.2 101.6 152.733 99.2668 152.733C99.0001 152.733 98.2667 152.6 97.2001 152.333C95.7334 152.067 94.6667 151.4 93.9334 150.333C93.1334 149.333 92.7334 148.2 92.7334 147.067ZM111.533 158.267C111.533 157.8 111.6 157.267 111.733 156.667L113.6 150.067C114.067 148.467 114.933 147.267 116.333 146.467C117.733 145.667 119.067 145.467 120.533 145.867C122.067 146.333 123.267 147.2 124.067 148.6C124.867 149.933 125.067 151.333 124.667 152.8L122.733 159.867C122.067 162.6 120.333 163.933 117.467 163.933C116.867 163.933 116.267 163.867 115.733 163.733C114.4 163.467 113.4 162.8 112.667 161.733C112 160.533 111.6 159.4 111.533 158.267ZM120.733 126.533C120.733 126.333 120.867 125.733 121.067 124.8L123.067 117.933C123.333 116.533 123.933 115.467 125 114.8C126.067 114.133 127.133 113.8 128.267 113.867C128.533 113.8 129.133 113.867 129.867 114.067C131.333 114.4 132.467 115.267 133.333 116.6C134.133 117.733 134.267 119.133 133.8 120.933L132.2 127.8C131.333 130.667 129.667 132.133 127.133 132.133C126.733 132.133 126 132 124.867 131.733C123.467 131.333 122.467 130.6 121.8 129.667C121.067 128.6 120.733 127.6 120.733 126.533Z" fill="#8F4E00"/>
</svg>
