<svg width="200" height="200" viewBox="0 0 200 200" fill="none" xmlns="http://www.w3.org/2000/svg">
<path d="M42.2666 83.2C42.2666 76.9333 44.2666 71.3333 48.1999 66.4C52.1333 61.4666 57.1333 58.3333 63.1999 57C64.8666 49.5333 68.6666 43.3333 74.6666 38.5333C80.6666 33.7333 87.4666 31.3333 95.1999 31.3333C102.667 31.3333 109.4 33.6666 115.333 38.3333C121.267 43 125.067 49 126.867 56.2666H128.667C136.133 56.2666 142.533 58.8666 147.867 64.1333C153.133 69.3333 155.8 75.7333 155.8 83.1333C155.8 87.1333 155 90.9333 153.333 94.4666C151.667 98 149.4 101.067 146.467 103.6V103.8C146.467 107.733 145.2 111.267 142.733 114.4C140.267 117.533 137.133 119.467 133.4 120.333C132.467 124.467 130.4 128 127.333 130.867C124.267 133.733 120.6 135.533 116.467 136.2C118.4 138.467 119.333 141 119.333 143.733C119.333 146.933 118.2 149.667 115.933 152C113.667 154.267 110.933 155.467 107.733 155.467C104.533 155.467 101.8 154.333 99.5333 152C97.2666 149.733 96.1333 146.933 96.1333 143.733C96.1333 142.467 96.3333 141.2 96.7999 139.933H96.1333C92.2666 139.933 88.9333 138.533 86.1333 135.733C83.3333 132.933 81.9333 129.6 81.9333 125.733C81.9333 123.067 82.5999 120.667 83.9333 118.6C80.4666 116.667 77.9999 113.933 76.4666 110.267H67.9333V110.2C60.7999 109.733 54.7333 106.933 49.7333 101.733C44.7333 96.5333 42.2666 90.4 42.2666 83.2ZM51.5999 81.5333C51.5999 86.8666 53.4666 91.4 57.1999 95.1333C60.9333 98.8666 65.4666 100.733 70.7333 100.733C73.9999 100.733 77.0666 100 79.8666 98.4667C80.6666 103.4 82.9999 107.533 86.7999 110.867C90.5999 114.2 95.1333 115.8 100.267 115.8C106.067 115.8 111 113.733 115.067 109.667C117.8 112.867 121.2 114.4 125.333 114.4C129.133 114.4 132.333 113.067 135.067 110.4C137.733 107.733 139.067 104.467 139.067 100.667C141.733 98.8666 143.867 96.6 145.4 93.7333C146.933 90.9333 147.733 87.8666 147.733 84.6C147.733 79.3333 145.867 74.8 142.067 71.1333C138.267 67.4666 133.733 65.6 128.4 65.6C124.667 65.6 121.267 66.6 118.2 68.5333C118.6 66.9333 118.733 65.1333 118.733 63.2666C118.733 56.8666 116.467 51.4 111.867 46.8666C107.267 42.3333 101.733 40.1333 95.2666 40.1333C88.9999 40.1333 83.5999 42.3333 79.0666 46.6C74.5333 50.8666 72.1333 56.2 71.9333 62.4C71.7999 62.4 71.5999 62.4 71.3999 62.4C71.1333 62.4 70.9333 62.4 70.7999 62.4C65.5333 62.4 61.0666 64.2666 57.2666 68C53.4666 71.7333 51.5999 76.3333 51.5999 81.5333Z" fill="#8F4E00"/>
</svg>
