<svg width="200" height="200" viewBox="0 0 200 200" fill="none" xmlns="http://www.w3.org/2000/svg">
<path d="M30.9331 113C30.9331 105.267 33.2664 98.4666 37.9998 92.4666C42.7331 86.4666 48.7998 82.6 56.2664 80.7333C58.3331 71.6666 62.9998 64.2 70.2664 58.3333C77.5331 52.4666 85.8664 49.6 95.2664 49.6C104.466 49.6 112.6 52.4666 119.8 58.1333C127 63.8 131.666 71.1333 133.8 80.0666H135.933C141.866 80.0666 147.4 81.5333 152.466 84.4666C157.533 87.4 161.6 91.4 164.533 96.4666C167.466 101.533 169 107.067 169 113C169 121.8 165.933 129.467 159.733 135.8C153.6 142.2 146.066 145.533 137.2 145.8C136.333 145.8 135.866 145.4 135.866 144.667V135.8C135.866 135 136.333 134.6 137.2 134.6C142.866 134.333 147.733 132.067 151.733 127.8C155.733 123.533 157.733 118.6 157.733 112.933C157.733 107 155.6 101.933 151.266 97.6C146.933 93.2666 141.8 91.1333 135.8 91.1333H125.066C124.266 91.1333 123.866 90.7333 123.866 90L123.333 86.1333C122.6 78.9333 119.466 72.8666 114.066 68C108.6 63.1333 102.333 60.6666 95.0664 60.6666C87.7331 60.6666 81.3998 63.1333 75.9998 68.0666C70.5998 73 67.5331 79.0666 66.8664 86.4L66.4664 89.7333C66.4664 90.5333 65.9998 91 65.1331 91L61.5998 91.4666C56.0664 91.9333 51.3998 94.2 47.5998 98.4C43.7998 102.6 41.9331 107.4 41.9331 113C41.9331 118.667 43.9331 123.6 47.9331 127.867C51.9331 132.133 56.7998 134.333 62.4664 134.667C63.1998 134.667 63.5998 135.067 63.5998 135.867V144.733C63.5998 145.467 63.1998 145.867 62.4664 145.867C53.5331 145.6 45.9998 142.267 39.7998 135.867C33.9998 129.467 30.9331 121.8 30.9331 113ZM73.3331 140.133C73.3331 138.667 73.8664 137.333 74.9331 136.267C75.9998 135.2 77.2664 134.667 78.8664 134.667C80.3998 134.667 81.7331 135.2 82.7998 136.267C83.8664 137.333 84.3998 138.667 84.3998 140.133C84.3998 141.733 83.8664 143.067 82.7998 144.133C81.7331 145.267 80.4664 145.8 78.8664 145.8C77.3331 145.8 75.9998 145.267 74.9331 144.133C73.8664 143.067 73.3331 141.733 73.3331 140.133ZM73.3331 164.333C73.3331 162.733 73.8664 161.4 74.9331 160.333C75.9998 159.333 77.2664 158.8 78.7998 158.8C80.3331 158.8 81.6664 159.333 82.7331 160.333C83.7998 161.4 84.3331 162.667 84.3331 164.267C84.3331 165.867 83.7998 167.133 82.7331 168.2C81.6664 169.267 80.3998 169.733 78.7998 169.733C77.2664 169.733 75.9331 169.2 74.8664 168.2C73.8664 167.2 73.3331 165.867 73.3331 164.333ZM94.5998 153C94.5998 151.467 95.1331 150.067 96.2664 148.867C97.3331 147.8 98.5998 147.267 100.066 147.267C101.6 147.267 102.933 147.867 104.066 149C105.2 150.133 105.8 151.467 105.8 153C105.8 154.533 105.266 155.867 104.133 157C103 158.133 101.666 158.667 100.066 158.667C98.5331 158.667 97.2664 158.133 96.1998 157C95.1331 155.867 94.5998 154.533 94.5998 153ZM94.5998 128.867C94.5998 127.333 95.1331 126 96.2664 124.867C97.4664 123.8 98.7331 123.267 100.066 123.267C101.666 123.267 103 123.8 104.133 124.933C105.266 126.067 105.8 127.333 105.8 128.933C105.8 130.467 105.266 131.8 104.133 132.867C103 133.933 101.666 134.467 100.066 134.467C98.5331 134.467 97.2664 133.933 96.1998 132.867C95.1331 131.733 94.5998 130.4 94.5998 128.867ZM94.5998 177.4C94.5998 175.867 95.1331 174.533 96.2664 173.333C97.3331 172.267 98.5998 171.733 100.066 171.733C101.666 171.733 103 172.267 104.133 173.4C105.266 174.533 105.8 175.867 105.8 177.4C105.8 178.933 105.266 180.267 104.133 181.333C103 182.4 101.666 182.933 100.066 182.933C98.5331 182.933 97.2664 182.4 96.1998 181.333C95.1331 180.2 94.5998 178.933 94.5998 177.4ZM116.066 140.133C116.066 138.667 116.6 137.4 117.733 136.267C118.866 135.133 120.2 134.6 121.733 134.6C123.266 134.6 124.6 135.133 125.666 136.2C126.733 137.267 127.266 138.6 127.266 140.067C127.266 141.667 126.733 143 125.666 144.067C124.6 145.2 123.333 145.733 121.733 145.733C120.133 145.733 118.8 145.2 117.733 144.067C116.666 143 116.066 141.667 116.066 140.133ZM116.066 164.333C116.066 162.867 116.6 161.533 117.733 160.333C118.8 159.333 120.133 158.8 121.733 158.8C123.333 158.8 124.6 159.333 125.666 160.333C126.733 161.333 127.2 162.667 127.2 164.267C127.2 165.867 126.666 167.133 125.666 168.2C124.6 169.267 123.333 169.733 121.733 169.733C120.133 169.733 118.8 169.2 117.733 168.133C116.666 167.133 116.066 165.867 116.066 164.333Z" fill="#8F4E00"/>
</svg>
