<svg width="200" height="200" viewBox="0 0 200 200" fill="none" xmlns="http://www.w3.org/2000/svg">
<path d="M49.7334 96.0666C49.7334 94.8 50.2001 93.6666 51.0667 92.7333C51.9334 91.8 53.0001 91.3333 54.2667 91.3333C55.5334 91.3333 56.6667 91.8 57.5334 92.7333C58.4001 93.6666 58.8667 94.7333 58.8667 96.0666C58.8667 97.3333 58.4001 98.4 57.5334 99.2666C56.6667 100.133 55.5334 100.6 54.3334 100.6C53.1334 100.6 52.0001 100.133 51.1334 99.2666C50.1334 98.3333 49.7334 97.2666 49.7334 96.0666ZM62.9334 96.0666C62.9334 94.8 63.4001 93.6666 64.2667 92.7333C65.1334 91.8 66.2001 91.3333 67.4667 91.3333H89.0001L73.8001 76.1333C72.8667 75.3333 72.4001 74.2666 72.4001 73C72.4001 71.7333 72.8667 70.6666 73.8001 69.7333C74.7334 68.8 75.8001 68.3333 77.0667 68.3333C78.3334 68.3333 79.4001 68.8 80.3334 69.7333L95.4667 84.8666V63.4666C95.4667 62.2 95.9334 61.0666 96.8667 60.1333C97.8001 59.2 98.8667 58.7333 100.2 58.7333C101.467 58.7333 102.533 59.2 103.4 60.1333C104.267 61.0666 104.733 62.1333 104.733 63.4666V85L120 69.6666C120.933 68.7333 122 68.2666 123.2 68.2666C124.4 68.2666 125.533 68.7333 126.467 69.6666C127.267 70.6 127.667 71.6666 127.667 72.9333C127.667 74.2 127.267 75.2666 126.467 76.0666L111.267 91.2666H132.8C134 91.2666 135.067 91.7333 135.933 92.6666C136.8 93.6 137.267 94.6666 137.267 96C137.267 97.2 136.8 98.2666 135.933 99.1333C135.067 100 134 100.467 132.8 100.467H111.267L126.533 115.733C127.333 116.533 127.733 117.6 127.733 118.867C127.733 120.133 127.333 121.2 126.533 122.133C125.6 123.067 124.467 123.533 123.267 123.533C122.067 123.533 120.933 123.067 120.067 122.133L104.8 106.8V128.4C104.8 129.667 104.333 130.8 103.467 131.667C102.6 132.533 101.533 133 100.267 133C99.0001 133 97.8667 132.533 96.9334 131.667C96.0001 130.8 95.5334 129.667 95.5334 128.4V106.933L80.4001 122.067C79.4667 123 78.4001 123.467 77.1334 123.467C75.8667 123.467 74.8001 123 73.8667 122.067C72.9334 121.133 72.4667 120.067 72.4667 118.8C72.4667 117.533 72.9334 116.533 73.8667 115.667L89.2001 100.4H67.6001C66.3334 100.4 65.2667 99.9333 64.4001 99.0666C63.3334 98.3333 62.9334 97.2666 62.9334 96.0666ZM63.0001 128.333C63.0001 127.133 63.4667 126 64.4001 125.133C65.2001 124.2 66.2667 123.733 67.5334 123.733C68.8001 123.733 69.8667 124.2 70.8001 125.133C71.7334 126.067 72.2001 127.133 72.2001 128.333C72.2001 129.533 71.7334 130.667 70.8001 131.533C69.8667 132.467 68.8001 132.933 67.5334 132.933C66.2667 132.933 65.2001 132.467 64.4001 131.533C63.4667 130.667 63.0001 129.6 63.0001 128.333ZM63.0001 63.6C63.0001 62.4 63.4667 61.2666 64.4001 60.4C65.2001 59.4666 66.2667 59 67.5334 59C68.8001 59 69.8667 59.4666 70.8001 60.4C71.7334 61.3333 72.2001 62.4 72.2001 63.6C72.2001 64.8 71.7334 65.9333 70.8001 66.8666C69.8667 67.8 68.8001 68.2666 67.5334 68.2666C66.2667 68.2666 65.2001 67.8 64.4001 66.8666C63.4667 65.9333 63.0001 64.8 63.0001 63.6ZM95.3334 141.667C95.3334 140.467 95.8001 139.4 96.7334 138.533C97.6667 137.667 98.7334 137.2 100.067 137.2C101.333 137.2 102.4 137.667 103.267 138.533C104.133 139.4 104.6 140.467 104.6 141.667C104.6 142.933 104.133 144.067 103.267 144.933C102.4 145.8 101.333 146.267 100.067 146.267C98.8001 146.267 97.6667 145.8 96.7334 144.933C95.8001 144.067 95.3334 143 95.3334 141.667ZM95.3334 50.2666C95.3334 49 95.8001 47.8666 96.7334 47C97.6667 46.1333 98.7334 45.6666 100.067 45.6666C101.333 45.6666 102.4 46.1333 103.267 47C104.133 47.8666 104.6 49 104.6 50.2666C104.6 51.4666 104.133 52.5333 103.267 53.4C102.4 54.2666 101.333 54.7333 100.067 54.7333C98.8001 54.7333 97.6667 54.2666 96.7334 53.4C95.8001 52.5333 95.3334 51.4666 95.3334 50.2666ZM127.8 128.333C127.8 127.133 128.267 126 129.2 125.133C130 124.2 131.067 123.733 132.333 123.733C133.6 123.733 134.667 124.2 135.6 125.133C136.533 126.067 137 127.133 137 128.333C137 129.533 136.533 130.667 135.6 131.533C134.667 132.467 133.6 132.933 132.333 132.933C131.067 132.933 130 132.467 129.2 131.533C128.267 130.667 127.8 129.6 127.8 128.333ZM127.8 63.6C127.8 62.4 128.267 61.2666 129.2 60.4C130 59.4666 131.067 59 132.333 59C133.6 59 134.667 59.4666 135.6 60.4C136.533 61.3333 137 62.4 137 63.6C137 64.8 136.533 65.9333 135.6 66.8666C134.667 67.8 133.6 68.2666 132.333 68.2666C131.067 68.2666 130 67.8 129.2 66.8666C128.267 65.9333 127.8 64.8 127.8 63.6ZM141.133 96.0666C141.133 94.8 141.6 93.6666 142.467 92.7333C143.333 91.8 144.467 91.3333 145.733 91.3333C146.933 91.3333 148 91.8 148.867 92.7333C149.733 93.6666 150.2 94.7333 150.2 96.0666C150.2 97.2666 149.733 98.3333 148.867 99.2C148 100.067 146.933 100.533 145.733 100.533C144.467 100.533 143.333 100.067 142.467 99.2C141.6 98.3333 141.133 97.2666 141.133 96.0666Z" fill="#8F4E00"/>
</svg>
