<svg width="200" height="200" viewBox="0 0 200 200" fill="none" xmlns="http://www.w3.org/2000/svg">
<path d="M30.9333 113C30.9333 105.267 33.2667 98.4666 38 92.4666C42.7333 86.4666 48.8 82.6 56.2667 80.7333C58.3333 71.6666 63 64.2 70.2667 58.3333C77.5334 52.4666 85.8667 49.6 95.2667 49.6C104.467 49.6 112.6 52.4666 119.8 58.1333C127 63.8 131.667 71.1333 133.8 80.0666H135.933C141.867 80.0666 147.4 81.5333 152.467 84.4666C157.533 87.4 161.6 91.4 164.533 96.4666C167.467 101.533 169 107.067 169 113C169 121.8 165.933 129.467 159.733 135.8C153.6 142.2 146.067 145.533 137.2 145.8C136.333 145.8 135.867 145.4 135.867 144.667V135.8C135.867 135 136.333 134.6 137.2 134.6C142.867 134.333 147.733 132.067 151.733 127.8C155.733 123.533 157.733 118.6 157.733 112.933C157.733 107 155.6 101.933 151.267 97.6C146.933 93.2666 141.8 91.1333 135.8 91.1333H125.067C124.267 91.1333 123.867 90.7333 123.867 90L123.333 86.1333C122.6 78.9333 119.467 72.8666 114.067 68C108.6 63.1333 102.333 60.6666 95.0667 60.6666C87.7334 60.6666 81.4 63.1333 76 68.0666C70.6 73 67.5334 79.0666 66.8667 86.4L66.4667 89.7333C66.4667 90.5333 66 91 65.1334 91L61.6 91.4666C56.0667 91.9333 51.4 94.2 47.6 98.4C43.8 102.6 41.9334 107.4 41.9334 113C41.9334 118.667 43.9334 123.6 47.9334 127.867C51.9334 132.133 56.8 134.333 62.4667 134.667C63.2 134.667 63.6 135.067 63.6 135.867V144.733C63.6 145.467 63.2 145.867 62.4667 145.867C53.5333 145.6 46 142.267 39.8 135.867C34 129.467 30.9333 121.8 30.9333 113ZM67.6 164.333C67.6 162.8 68.1334 161.467 69.2667 160.333C70.3334 159.333 71.6 158.8 73.0667 158.8C74.6 158.8 75.9334 159.333 77 160.333C78.0667 161.333 78.6 162.667 78.6 164.267C78.6 165.867 78.0667 167.133 77 168.2C75.9334 169.267 74.6667 169.733 73.0667 169.733C71.5334 169.733 70.2 169.2 69.1334 168.2C68.1334 167.2 67.6 165.867 67.6 164.333ZM73.3334 140.133C73.3334 138.667 73.8667 137.333 74.9333 136.267C76 135.2 77.2667 134.667 78.8667 134.667C80.4 134.667 81.7334 135.2 82.8 136.267C83.8667 137.333 84.4 138.667 84.4 140.133C84.4 141.733 83.8667 143.067 82.8 144.133C81.7334 145.267 80.4667 145.8 78.8667 145.8C77.3334 145.8 76 145.267 74.9333 144.133C73.8667 143.067 73.3334 141.733 73.3334 140.133ZM86 177.4C86 175.867 86.5334 174.533 87.6667 173.333C88.7334 172.267 90 171.733 91.4667 171.733C93.0667 171.733 94.4 172.267 95.5334 173.4C96.6667 174.533 97.2 175.867 97.2 177.4C97.2 178.933 96.6667 180.267 95.5334 181.333C94.4 182.4 93.0667 182.933 91.4667 182.933C89.9334 182.933 88.6667 182.4 87.6 181.333C86.6 180.2 86 178.933 86 177.4ZM91.8 153C91.8 151.4 92.3334 150.067 93.4 148.867C94.4667 147.8 95.8 147.267 97.2667 147.267C98.8 147.267 100.133 147.8 101.267 148.933C102.4 150.067 102.933 151.4 102.933 153C102.933 154.533 102.4 155.867 101.267 157C100.133 158.133 98.8 158.667 97.2667 158.667C95.7334 158.667 94.4667 158.133 93.4 157C92.3334 155.867 91.8 154.533 91.8 153ZM94.6 128.867C94.6 127.333 95.1333 126 96.2667 124.867C97.4667 123.8 98.7334 123.267 100.067 123.267C101.667 123.267 103 123.8 104.133 124.933C105.267 126.067 105.8 127.333 105.8 128.933C105.8 130.467 105.267 131.8 104.133 132.867C103 133.933 101.667 134.467 100.067 134.467C98.5334 134.467 97.2667 133.933 96.2 132.867C95.1334 131.733 94.6 130.4 94.6 128.867ZM110.4 164.333C110.4 162.8 110.933 161.467 112 160.333C113.067 159.333 114.4 158.8 116 158.8C117.6 158.8 118.867 159.333 119.933 160.333C121 161.4 121.467 162.667 121.467 164.267C121.467 165.867 120.933 167.133 119.933 168.2C118.867 169.267 117.6 169.733 116 169.733C114.4 169.733 113.067 169.2 112 168.133C110.933 167.133 110.4 165.867 110.4 164.333ZM116.067 140.133C116.067 138.667 116.6 137.4 117.733 136.267C118.867 135.133 120.2 134.6 121.733 134.6C123.267 134.6 124.6 135.133 125.667 136.2C126.733 137.267 127.267 138.6 127.267 140.067C127.267 141.667 126.733 143 125.667 144.067C124.6 145.2 123.333 145.733 121.733 145.733C120.133 145.733 118.8 145.2 117.733 144.067C116.667 143 116.067 141.667 116.067 140.133Z" fill="#BD4747"/>
</svg>
