<svg width="200" height="200" viewBox="0 0 200 200" fill="none" xmlns="http://www.w3.org/2000/svg">
<path d="M30.9331 112.733C30.9331 105.067 33.3331 98.2667 38.1331 92.2667C42.9331 86.2667 48.9998 82.4667 56.3331 80.7334C58.3998 71.6667 63.0664 64.2 70.3331 58.4C77.5998 52.6 85.9998 49.6667 95.3998 49.6667C104.6 49.6667 112.733 52.5334 119.933 58.1334C127.066 63.8 131.8 71.0667 134 80H136.066C142 80 147.533 81.4667 152.6 84.3334C157.666 87.2 161.733 91.2 164.666 96.2C167.6 101.2 169.133 106.733 169.133 112.667C169.133 121.6 166.066 129.267 159.933 135.667C153.8 142.067 146.266 145.467 137.4 145.733C136.533 145.733 136.066 145.333 136.066 144.6V135.733C136.066 134.933 136.533 134.533 137.4 134.533C143.133 134.267 147.933 132 151.933 127.733C155.933 123.467 157.933 118.467 157.933 112.667C157.933 106.867 155.8 101.867 151.4 97.6C147.066 93.3334 141.933 91.2 136 91.2H125.333C124.533 91.2 124.066 90.8 124.066 90.0667L123.6 86.2C122.866 79.0667 119.8 73 114.4 68.1334C108.933 63.2667 102.6 60.8 95.3998 60.8C88.1331 60.8 81.7331 63.2 76.3331 68.0667C70.9331 72.9334 67.8664 78.9334 67.1331 86.1334L66.7331 89.7334C66.7331 90.5334 66.2664 90.9334 65.3998 90.9334L61.8664 91.1334C56.3998 91.4 51.7998 93.6 47.9331 97.8C44.0664 102 42.1998 106.933 42.1998 112.6C42.1998 118.4 44.1998 123.4 48.1998 127.667C52.1998 131.933 57.0664 134.2 62.7331 134.467C63.4664 134.467 63.8664 134.867 63.8664 135.667V144.533C63.8664 145.267 63.4664 145.667 62.7331 145.667C53.7998 145.267 46.2664 141.867 40.0664 135.467C33.8664 129.067 30.9331 121.6 30.9331 112.733ZM70.4664 118.6C70.4664 117 71.2664 114.8 72.9331 112C74.5331 109.2 76.0664 107 77.4664 105.267C78.8664 103.667 79.7331 102.733 79.9998 102.467L82.3998 105.133C84.1331 107 85.7331 109.2 87.1998 111.933C88.6664 114.6 89.3998 116.867 89.3998 118.6C89.3998 121.2 88.5331 123.4 86.7331 125.133C84.9331 126.867 82.7331 127.733 80.0664 127.733C77.4664 127.733 75.1998 126.867 73.3331 125.067C71.3998 123.333 70.4664 121.133 70.4664 118.6ZM90.3331 145.2C90.3331 143.333 90.8664 141.267 91.9331 138.8C92.9998 136.333 94.2664 134.133 95.8664 132C97.0664 130.267 98.5331 128.4 100.333 126.4C102.066 124.4 103.4 122.933 104.333 122.067C104.8 121.667 105.333 121.133 105.933 120.533L107.533 122.067C110.066 124.267 112.866 127.533 116 131.8C117.6 134 118.866 136.333 119.933 138.733C121 141.133 121.466 143.267 121.466 145.2C121.466 149.467 119.933 153.133 116.933 156.2C113.933 159.267 110.2 160.733 105.866 160.733C101.6 160.733 97.9331 159.2 94.8664 156.267C91.7998 153.2 90.3331 149.533 90.3331 145.2ZM100.133 100.8C100.133 98 102.266 94.4667 106.6 90.1334L108.2 91.8C109.4 93.2 110.4 94.8 111.4 96.5334C112.333 98.2667 112.866 99.6667 112.866 100.8C112.866 102.533 112.266 104 111 105.2C109.8 106.4 108.333 107.067 106.6 107.067C104.8 107.067 103.266 106.467 102 105.2C100.733 104 100.133 102.533 100.133 100.8Z" fill="#8F4E00"/>
</svg>
