<svg width="200" height="200" viewBox="0 0 200 200" fill="none" xmlns="http://www.w3.org/2000/svg">
<path d="M30.8667 112.733C30.8667 120.133 33.0667 126.733 37.4667 132.533C41.8667 138.333 47.5334 142.333 54.5334 144.467L50.2 155.667C50 156.6 50.3334 157.133 51.1334 157.133H65.3334L58.4 182.333H60.2667L86.7334 147.533C87 147.267 87 146.933 86.8667 146.6C86.7334 146.267 86.4 146.133 85.9334 146.133H71.4L87.9334 115.2C88.3334 114.267 88.0667 113.8 87 113.8H67.4C66.8 113.8 66.2667 114.133 65.9334 114.733L58.6667 133.867C53.9334 132.667 50 130.067 46.8667 126.133C43.7334 122.2 42.2 117.733 42.2 112.733C42.2 107.2 44.0667 102.4 47.8 98.3334C51.5334 94.2667 56.2 91.9333 61.8 91.2667L65.2667 90.8C66.1334 90.8 66.6 90.4 66.6 89.6667L67.0667 86.2C67.7334 79 70.7334 72.9334 76.1334 68.0667C81.5334 63.2 87.8667 60.7334 95.1334 60.7334C102.4 60.7334 108.733 63.2 114.133 68.0667C119.6 72.9334 122.667 79 123.467 86.2L123.867 90.0667C123.867 90.8667 124.267 91.2667 125.133 91.2667H135.867C141.933 91.2667 147.067 93.4 151.333 97.6C155.6 101.8 157.733 106.867 157.733 112.8C157.733 118.467 155.733 123.4 151.8 127.533C147.867 131.667 143 133.933 137.2 134.4C136.333 134.4 135.867 134.8 135.867 135.667V144.8C135.867 145.533 136.333 145.933 137.2 145.933C141.533 145.8 145.667 144.8 149.6 143C153.533 141.2 156.933 138.8 159.733 135.867C162.533 132.933 164.8 129.467 166.467 125.4C168.133 121.4 169 117.2 169 112.867C169 106.867 167.533 101.333 164.533 96.2667C161.533 91.2 157.533 87.2 152.467 84.2667C147.4 81.3334 141.867 79.8667 135.933 79.8667H133.8C131.6 71 126.933 63.7334 119.733 58.1334C112.533 52.5334 104.4 49.6667 95.2 49.6667C85.8 49.6667 77.4 52.6 70.1334 58.4C62.8667 64.2 58.2 71.6667 56.1334 80.8C48.8 82.5334 42.7334 86.3334 37.9334 92.3334C33.1334 98.3334 30.8667 105.067 30.8667 112.733ZM85.2667 178.467C85.2667 179.533 85.6 180.533 86.2667 181.533C86.9334 182.533 88 183.267 89.3334 183.667C90.2667 183.867 90.8 184 91 184C91.6 184 92.4 183.8 93.5334 183.333C94.9334 182.733 95.8667 181.533 96.3334 179.867L98.2 172.867C98.6 171.4 98.4667 170 97.6667 168.667C96.8667 167.333 95.7334 166.467 94.1334 166C92.6667 165.6 91.2667 165.733 89.9334 166.533C88.6 167.333 87.6667 168.467 87.2 170.067L85.4 176.733C85.3334 177.867 85.2667 178.467 85.2667 178.467ZM94.2 146.667C94.2 147.6 94.5334 148.6 95.2 149.6C95.8667 150.6 96.8667 151.333 98.2 151.8C99.6667 152.267 101.133 152.2 102.467 151.467C103.8 150.733 104.667 149.6 105.133 148L107.133 141.067C107.533 139.6 107.333 138.2 106.6 136.867C105.8 135.533 104.6 134.6 103.067 134.133C101.533 133.733 100.133 133.867 98.7334 134.667C97.3334 135.467 96.4667 136.6 96 138.133L94.4 144.867C94.2667 146 94.2 146.6 94.2 146.667ZM113 157.667C113 158.8 113.333 159.933 114.067 161.067C114.8 162.2 115.867 162.933 117.2 163.4C117.333 163.4 117.6 163.467 118 163.533C118.333 163.6 118.6 163.667 118.8 163.667C119.667 163.667 120.533 163.533 121.333 163.133C122.6 162.667 123.533 161.4 124.067 159.333L125.733 152.6C126.2 151.067 126.067 149.6 125.333 148.2C124.6 146.8 123.467 145.867 122 145.4C120.333 145 118.8 145.2 117.467 145.933C116.133 146.733 115.267 147.933 115 149.467L113.2 156.333C113.067 156.733 113 157.2 113 157.667ZM122.067 125.733C122 126.8 122.333 127.8 123.067 128.867C123.8 129.933 124.867 130.733 126.333 131.4C126.867 131.667 127.4 131.8 128.067 131.8C128.8 131.8 129.533 131.6 130.333 131.267C131.733 130.6 132.667 129.333 133.267 127.467L135.2 120.6C135.333 119.733 135.4 119.267 135.4 119.133C135.4 118 135.067 116.933 134.333 115.867C133.6 114.8 132.533 114.067 131.067 113.667C130.933 113.667 130.667 113.6 130.333 113.533C129.933 113.333 129.667 113.333 129.467 113.333C128.333 113.333 127.267 113.667 126.2 114.333C125.133 115 124.4 116.067 124 117.533L122.2 124.267C122.133 124.8 122.067 125.267 122.067 125.733Z" fill="#8F4E00"/>
</svg>
