<svg width="200" height="200" viewBox="0 0 200 200" fill="none" xmlns="http://www.w3.org/2000/svg">
<path d="M30.8667 112.733C30.8667 120.133 33.0667 126.733 37.4667 132.533C41.8667 138.333 47.6 142.333 54.6667 144.467L50.2667 155.667C50.0667 156.6 50.4 157.133 51.2 157.133H65.4L58.8667 185.8H60.7334L86.8667 147.467C87.1334 147.2 87.1334 146.867 86.9334 146.533C86.7334 146.2 86.4 146.067 85.9334 146.067H71.4L87.9334 115.133C88.4 114.2 88.0667 113.667 87 113.667H67.4C66.8 113.667 66.2667 114 65.8667 114.667L58.7334 133.8C54 132.6 50.0667 130 46.9334 126.067C43.8 122.133 42.2667 117.667 42.2667 112.667C42.2667 107.133 44.1334 102.333 47.9334 98.2C51.7334 94.1334 56.4 91.7334 61.9334 91.0667L65.4667 90.6C66.3334 90.6 66.8 90.2 66.8 89.4L67.2667 86C68 78.8 71 72.7334 76.4 67.8667C81.8 63 88.1334 60.5334 95.4 60.5334C102.667 60.5334 109 63 114.4 67.8667C119.867 72.7334 122.933 78.8 123.733 86L124.2 89.8667C124.2 90.6 124.6 91 125.4 91H136.067C142.133 91 147.267 93.1334 151.533 97.3334C155.8 101.533 158 106.667 158 112.533C158 118.2 156 123.133 152.067 127.267C148.133 131.4 143.2 133.733 137.4 134.2C136.533 134.2 136.067 134.6 136.067 135.4V144.533C136.067 145.267 136.533 145.667 137.4 145.667C146.267 145.4 153.8 142 160 135.6C166.2 129.2 169.267 121.533 169.267 112.6C169.267 106.6 167.8 101.067 164.8 96C161.867 90.9334 157.8 86.9334 152.733 84C147.6 81.0667 142.067 79.6 136.067 79.6H134C131.8 70.7334 127.067 63.4667 119.933 57.8667C112.8 52.2667 104.6 49.4 95.4 49.4C86 49.4 77.6 52.3334 70.3334 58.1334C63.0667 63.9334 58.4 71.4 56.3334 80.5334C48.9334 82.2667 42.8667 86.0667 38.0667 92.0667C33.2667 98.0667 30.8667 105.067 30.8667 112.733ZM85.1334 177.467C85.1334 180.067 86.4 181.8 89 182.6C89.0667 182.6 89.3334 182.6 89.7334 182.667C90.1334 182.733 90.4667 182.733 90.6667 182.733C91.8 182.733 92.8667 182.4 93.9334 181.733C95 181.067 95.7334 180 96.0667 178.533L111.067 120.6C111.467 119 111.333 117.6 110.6 116.267C109.867 115 108.8 114.133 107.267 113.667C106.133 113.533 105.533 113.467 105.533 113.467C104.467 113.467 103.4 113.8 102.4 114.467C101.4 115.133 100.667 116.133 100.333 117.467L85.2667 175.6C85.2 176.267 85.1334 176.867 85.1334 177.467ZM112.867 157.067C112.867 157.933 113.067 158.8 113.533 159.6C114.467 161.067 115.6 162.067 116.933 162.533C117.667 162.733 118.333 162.867 118.933 162.867C119.533 162.867 120.267 162.733 121.067 162.333C122.467 161.733 123.4 160.467 123.867 158.533L133.467 120.733C133.667 119.8 133.8 119.2 133.8 118.933C133.8 117.933 133.467 116.933 132.733 115.933C132 114.933 131 114.2 129.667 113.8C128.533 113.667 127.933 113.6 127.933 113.6C126.8 113.6 125.733 113.933 124.8 114.6C123.867 115.267 123.2 116.267 122.8 117.6L113.067 155.6C113.067 155.733 113.067 155.933 113 156.333C112.867 156.667 112.867 156.867 112.867 157.067Z" fill="#BD4747"/>
</svg>
